<svg width="145" height="21" viewBox="0 0 145 21" fill="none" xmlns="http://www.w3.org/2000/svg">
<path d="M0 3C0 1.34315 1.34315 0 3 0H117V21H3C1.34315 21 0 19.6569 0 18V3Z" fill="url(#paint0_linear_1029_20)"/>
<g filter="url(#filter0_d_1029_20)">
<path d="M15.9238 13.5898C15.5566 13.7656 15.207 13.9023 14.875 14C14.5469 14.0977 14.1973 14.1465 13.8262 14.1465C13.3535 14.1465 12.9199 14.0781 12.5254 13.9414C12.1309 13.8008 11.793 13.5898 11.5117 13.3086C11.2266 13.0273 11.0059 12.6719 10.8496 12.2422C10.6934 11.8125 10.6152 11.3105 10.6152 10.7363C10.6152 9.66602 10.9082 8.82617 11.4941 8.2168C12.084 7.60742 12.8613 7.30273 13.8262 7.30273C14.2012 7.30273 14.5684 7.35547 14.9277 7.46094C15.291 7.56641 15.623 7.69531 15.9238 7.84766V9.07227H15.8652C15.5293 8.81055 15.1816 8.60938 14.8223 8.46875C14.4668 8.32812 14.1191 8.25781 13.7793 8.25781C13.1543 8.25781 12.6602 8.46875 12.2969 8.89062C11.9375 9.30859 11.7578 9.92383 11.7578 10.7363C11.7578 11.5254 11.9336 12.1328 12.2852 12.5586C12.6406 12.9805 13.1387 13.1914 13.7793 13.1914C14.002 13.1914 14.2285 13.1621 14.459 13.1035C14.6895 13.0449 14.8965 12.9688 15.0801 12.875C15.2402 12.793 15.3906 12.707 15.5312 12.6172C15.6719 12.5234 15.7832 12.4434 15.8652 12.377H15.9238V13.5898ZM22.9199 10.7305C22.9199 11.7969 22.6465 12.6387 22.0996 13.2559C21.5527 13.873 20.8203 14.1816 19.9023 14.1816C18.9766 14.1816 18.2402 13.873 17.6934 13.2559C17.1504 12.6387 16.8789 11.7969 16.8789 10.7305C16.8789 9.66406 17.1504 8.82227 17.6934 8.20508C18.2402 7.58398 18.9766 7.27344 19.9023 7.27344C20.8203 7.27344 21.5527 7.58398 22.0996 8.20508C22.6465 8.82227 22.9199 9.66406 22.9199 10.7305ZM21.7832 10.7305C21.7832 9.88281 21.6172 9.25391 21.2852 8.84375C20.9531 8.42969 20.4922 8.22266 19.9023 8.22266C19.3047 8.22266 18.8398 8.42969 18.5078 8.84375C18.1797 9.25391 18.0156 9.88281 18.0156 10.7305C18.0156 11.5508 18.1816 12.1738 18.5137 12.5996C18.8457 13.0215 19.3086 13.2324 19.9023 13.2324C20.4883 13.2324 20.9473 13.0234 21.2793 12.6055C21.6152 12.1836 21.7832 11.5586 21.7832 10.7305ZM34.1816 14H33.0801V10.2734C33.0801 9.99219 33.0664 9.7207 33.0391 9.45898C33.0156 9.19727 32.9629 8.98828 32.8809 8.83203C32.791 8.66406 32.6621 8.53711 32.4941 8.45117C32.3262 8.36523 32.084 8.32227 31.7676 8.32227C31.459 8.32227 31.1504 8.40039 30.8418 8.55664C30.5332 8.70898 30.2246 8.9043 29.916 9.14258C29.9277 9.23242 29.9375 9.33789 29.9453 9.45898C29.9531 9.57617 29.957 9.69336 29.957 9.81055V14H28.8555V10.2734C28.8555 9.98438 28.8418 9.71094 28.8145 9.45312C28.791 9.19141 28.7383 8.98242 28.6562 8.82617C28.5664 8.6582 28.4375 8.5332 28.2695 8.45117C28.1016 8.36523 27.8594 8.32227 27.543 8.32227C27.2422 8.32227 26.9395 8.39648 26.6348 8.54492C26.334 8.69336 26.0332 8.88281 25.7324 9.11328V14H24.6309V7.45508H25.7324V8.18164C26.0762 7.89648 26.418 7.67383 26.7578 7.51367C27.1016 7.35352 27.4668 7.27344 27.8535 7.27344C28.2988 7.27344 28.6758 7.36719 28.9844 7.55469C29.2969 7.74219 29.5293 8.00195 29.6816 8.33398C30.127 7.95898 30.5332 7.68945 30.9004 7.52539C31.2676 7.35742 31.6602 7.27344 32.0781 7.27344C32.7969 7.27344 33.3262 7.49219 33.666 7.92969C34.0098 8.36328 34.1816 8.9707 34.1816 9.75195V14ZM42.0625 10.6484C42.0625 11.1797 41.9863 11.666 41.834 12.1074C41.6816 12.5449 41.4668 12.916 41.1895 13.2207C40.9316 13.5098 40.627 13.7344 40.2754 13.8945C39.9277 14.0508 39.5586 14.1289 39.168 14.1289C38.8281 14.1289 38.5195 14.0918 38.2422 14.0176C37.9688 13.9434 37.6895 13.8281 37.4043 13.6719V16.4141H36.3027V7.45508H37.4043V8.14062C37.6973 7.89453 38.0254 7.68945 38.3887 7.52539C38.7559 7.35742 39.1465 7.27344 39.5605 7.27344C40.3496 7.27344 40.9629 7.57227 41.4004 8.16992C41.8418 8.76367 42.0625 9.58984 42.0625 10.6484ZM40.9258 10.6777C40.9258 9.88867 40.791 9.29883 40.5215 8.9082C40.252 8.51758 39.8379 8.32227 39.2793 8.32227C38.9629 8.32227 38.6445 8.39062 38.3242 8.52734C38.0039 8.66406 37.6973 8.84375 37.4043 9.06641V12.7754C37.7168 12.916 37.9844 13.0117 38.207 13.0625C38.4336 13.1133 38.6895 13.1387 38.9746 13.1387C39.5879 13.1387 40.0664 12.9316 40.4102 12.5176C40.7539 12.1035 40.9258 11.4902 40.9258 10.6777ZM49.2051 14H48.1035V13.2734C47.7324 13.5664 47.377 13.791 47.0371 13.9473C46.6973 14.1035 46.3223 14.1816 45.9121 14.1816C45.2246 14.1816 44.6895 13.9727 44.3066 13.5547C43.9238 13.1328 43.7324 12.5156 43.7324 11.7031V7.45508H44.834V11.1816C44.834 11.5137 44.8496 11.7988 44.8809 12.0371C44.9121 12.2715 44.9785 12.4727 45.0801 12.6406C45.1855 12.8125 45.3223 12.9375 45.4902 13.0156C45.6582 13.0938 45.9023 13.1328 46.2227 13.1328C46.5078 13.1328 46.8184 13.0586 47.1543 12.9102C47.4941 12.7617 47.8105 12.5723 48.1035 12.3418V7.45508H49.2051V14ZM54.7715 13.9414C54.5645 13.9961 54.3379 14.041 54.0918 14.0762C53.8496 14.1113 53.6328 14.1289 53.4414 14.1289C52.7734 14.1289 52.2656 13.9492 51.918 13.5898C51.5703 13.2305 51.3965 12.6543 51.3965 11.8613V8.38086H50.6523V7.45508H51.3965V5.57422H52.498V7.45508H54.7715V8.38086H52.498V11.3633C52.498 11.707 52.5059 11.9766 52.5215 12.1719C52.5371 12.3633 52.5918 12.543 52.6855 12.7109C52.7715 12.8672 52.8887 12.9824 53.0371 13.0566C53.1895 13.127 53.4199 13.1621 53.7285 13.1621C53.9082 13.1621 54.0957 13.1367 54.291 13.0859C54.4863 13.0312 54.627 12.9863 54.7129 12.9512H54.7715V13.9414ZM61.5859 10.8418H56.7637C56.7637 11.2441 56.8242 11.5957 56.9453 11.8965C57.0664 12.1934 57.2324 12.4375 57.4434 12.6289C57.6465 12.8164 57.8867 12.957 58.1641 13.0508C58.4453 13.1445 58.7539 13.1914 59.0898 13.1914C59.5352 13.1914 59.9824 13.1035 60.4316 12.9277C60.8848 12.748 61.207 12.5723 61.3984 12.4004H61.457V13.6016C61.0859 13.7578 60.707 13.8887 60.3203 13.9941C59.9336 14.0996 59.5273 14.1523 59.1016 14.1523C58.0156 14.1523 57.168 13.8594 56.5586 13.2734C55.9492 12.6836 55.6445 11.8477 55.6445 10.7656C55.6445 9.69531 55.9355 8.8457 56.5176 8.2168C57.1035 7.58789 57.873 7.27344 58.8262 7.27344C59.709 7.27344 60.3887 7.53125 60.8652 8.04688C61.3457 8.5625 61.5859 9.29492 61.5859 10.2441V10.8418ZM60.5137 9.99805C60.5098 9.41992 60.3633 8.97266 60.0742 8.65625C59.7891 8.33984 59.3535 8.18164 58.7676 8.18164C58.1777 8.18164 57.707 8.35547 57.3555 8.70312C57.0078 9.05078 56.8105 9.48242 56.7637 9.99805H60.5137ZM67.3398 8.65625H67.2812C67.1172 8.61719 66.957 8.58984 66.8008 8.57422C66.6484 8.55469 66.4668 8.54492 66.2559 8.54492C65.916 8.54492 65.5879 8.62109 65.2715 8.77344C64.9551 8.92188 64.6504 9.11523 64.3574 9.35352V14H63.2559V7.45508H64.3574V8.42188C64.7949 8.07031 65.1797 7.82227 65.5117 7.67773C65.8477 7.5293 66.1895 7.45508 66.5371 7.45508C66.7285 7.45508 66.8672 7.46094 66.9531 7.47266C67.0391 7.48047 67.168 7.49805 67.3398 7.52539V8.65625ZM78.2559 7.45508L75.6074 14H74.5L71.8691 7.45508H73.0645L75.0918 12.6641L77.1016 7.45508H78.2559ZM80.8809 6.35938H79.6387V5.2168H80.8809V6.35938ZM80.8105 14H79.709V7.45508H80.8105V14ZM87.666 12.1133C87.666 12.7109 87.418 13.2012 86.9219 13.584C86.4297 13.9668 85.7559 14.1582 84.9004 14.1582C84.416 14.1582 83.9707 14.1016 83.5645 13.9883C83.1621 13.8711 82.8242 13.7441 82.5508 13.6074V12.3711H82.6094C82.957 12.6328 83.3438 12.8418 83.7695 12.998C84.1953 13.1504 84.6035 13.2266 84.9941 13.2266C85.4785 13.2266 85.8574 13.1484 86.1309 12.9922C86.4043 12.8359 86.541 12.5898 86.541 12.2539C86.541 11.9961 86.4668 11.8008 86.3184 11.668C86.1699 11.5352 85.8848 11.4219 85.4629 11.3281C85.3066 11.293 85.1016 11.252 84.8477 11.2051C84.5977 11.1582 84.3691 11.1074 84.1621 11.0527C83.5879 10.9004 83.1797 10.6777 82.9375 10.3848C82.6992 10.0879 82.5801 9.72461 82.5801 9.29492C82.5801 9.02539 82.6348 8.77148 82.7441 8.5332C82.8574 8.29492 83.0273 8.08203 83.2539 7.89453C83.4727 7.71094 83.75 7.56641 84.0859 7.46094C84.4258 7.35156 84.8047 7.29688 85.2227 7.29688C85.6133 7.29688 86.0078 7.3457 86.4062 7.44336C86.8086 7.53711 87.1426 7.65234 87.4082 7.78906V8.9668H87.3496C87.0684 8.75977 86.7266 8.58594 86.3242 8.44531C85.9219 8.30078 85.5273 8.22852 85.1406 8.22852C84.7383 8.22852 84.3984 8.30664 84.1211 8.46289C83.8438 8.61523 83.7051 8.84375 83.7051 9.14844C83.7051 9.41797 83.7891 9.62109 83.957 9.75781C84.1211 9.89453 84.3867 10.0059 84.7539 10.0918C84.957 10.1387 85.1836 10.1855 85.4336 10.2324C85.6875 10.2793 85.8984 10.3223 86.0664 10.3613C86.5781 10.4785 86.9727 10.6797 87.25 10.9648C87.5273 11.2539 87.666 11.6367 87.666 12.1133ZM90.4316 6.35938H89.1895V5.2168H90.4316V6.35938ZM90.3613 14H89.2598V7.45508H90.3613V14ZM98.1191 10.7305C98.1191 11.7969 97.8457 12.6387 97.2988 13.2559C96.752 13.873 96.0195 14.1816 95.1016 14.1816C94.1758 14.1816 93.4395 13.873 92.8926 13.2559C92.3496 12.6387 92.0781 11.7969 92.0781 10.7305C92.0781 9.66406 92.3496 8.82227 92.8926 8.20508C93.4395 7.58398 94.1758 7.27344 95.1016 7.27344C96.0195 7.27344 96.752 7.58398 97.2988 8.20508C97.8457 8.82227 98.1191 9.66406 98.1191 10.7305ZM96.9824 10.7305C96.9824 9.88281 96.8164 9.25391 96.4844 8.84375C96.1523 8.42969 95.6914 8.22266 95.1016 8.22266C94.5039 8.22266 94.0391 8.42969 93.707 8.84375C93.3789 9.25391 93.2148 9.88281 93.2148 10.7305C93.2148 11.5508 93.3809 12.1738 93.7129 12.5996C94.0449 13.0215 94.5078 13.2324 95.1016 13.2324C95.6875 13.2324 96.1465 13.0234 96.4785 12.6055C96.8145 12.1836 96.9824 11.5586 96.9824 10.7305ZM105.303 14H104.201V10.2734C104.201 9.97266 104.184 9.69141 104.148 9.42969C104.113 9.16406 104.049 8.95703 103.955 8.80859C103.857 8.64453 103.717 8.52344 103.533 8.44531C103.35 8.36328 103.111 8.32227 102.818 8.32227C102.518 8.32227 102.203 8.39648 101.875 8.54492C101.547 8.69336 101.232 8.88281 100.932 9.11328V14H99.8301V7.45508H100.932V8.18164C101.275 7.89648 101.631 7.67383 101.998 7.51367C102.365 7.35352 102.742 7.27344 103.129 7.27344C103.836 7.27344 104.375 7.48633 104.746 7.91211C105.117 8.33789 105.303 8.95117 105.303 9.75195V14Z" fill="white"/>
</g>
<path d="M117 0H142C143.657 0 145 1.34315 145 3V18C145 19.6569 143.657 21 142 21H117V0Z" fill="url(#paint1_linear_1029_20)"/>
<g filter="url(#filter1_d_1029_20)">
<path d="M133.779 11.2285C133.779 11.6348 133.705 12.0234 133.557 12.3945C133.408 12.7656 133.205 13.0781 132.947 13.332C132.666 13.6055 132.33 13.8164 131.939 13.9648C131.553 14.1094 131.104 14.1816 130.592 14.1816C130.115 14.1816 129.656 14.1309 129.215 14.0293C128.773 13.9316 128.4 13.8125 128.096 13.6719V12.4355H128.178C128.498 12.6387 128.873 12.8125 129.303 12.957C129.732 13.0977 130.154 13.168 130.568 13.168C130.846 13.168 131.113 13.1289 131.371 13.0508C131.633 12.9727 131.865 12.8359 132.068 12.6406C132.24 12.4727 132.369 12.2715 132.455 12.0371C132.545 11.8027 132.59 11.5312 132.59 11.2227C132.59 10.9219 132.537 10.668 132.432 10.4609C132.33 10.2539 132.188 10.0879 132.004 9.96289C131.801 9.81445 131.553 9.71094 131.26 9.65234C130.971 9.58984 130.646 9.55859 130.287 9.55859C129.943 9.55859 129.611 9.58203 129.291 9.62891C128.975 9.67578 128.701 9.72266 128.471 9.76953V5.27539H133.721V6.30078H129.602V8.62109C129.77 8.60547 129.941 8.59375 130.117 8.58594C130.293 8.57812 130.445 8.57422 130.574 8.57422C131.047 8.57422 131.461 8.61523 131.816 8.69727C132.172 8.77539 132.498 8.91602 132.795 9.11914C133.107 9.33398 133.35 9.61133 133.521 9.95117C133.693 10.291 133.779 10.7168 133.779 11.2285Z" fill="white"/>
</g>
<defs>
<filter id="filter0_d_1029_20" x="10.6152" y="5.2168" width="94.6875" height="12.1973" filterUnits="userSpaceOnUse" color-interpolation-filters="sRGB">
<feFlood flood-opacity="0" result="BackgroundImageFix"/>
<feColorMatrix in="SourceAlpha" type="matrix" values="0 0 0 0 0 0 0 0 0 0 0 0 0 0 0 0 0 0 127 0" result="hardAlpha"/>
<feOffset dy="1"/>
<feComposite in2="hardAlpha" operator="out"/>
<feColorMatrix type="matrix" values="0 0 0 0 0 0 0 0 0 0 0 0 0 0 0 0 0 0 0.25 0"/>
<feBlend mode="normal" in2="BackgroundImageFix" result="effect1_dropShadow_1029_20"/>
<feBlend mode="normal" in="SourceGraphic" in2="effect1_dropShadow_1029_20" result="shape"/>
</filter>
<filter id="filter1_d_1029_20" x="128.096" y="5.27539" width="5.68359" height="9.90625" filterUnits="userSpaceOnUse" color-interpolation-filters="sRGB">
<feFlood flood-opacity="0" result="BackgroundImageFix"/>
<feColorMatrix in="SourceAlpha" type="matrix" values="0 0 0 0 0 0 0 0 0 0 0 0 0 0 0 0 0 0 127 0" result="hardAlpha"/>
<feOffset dy="1"/>
<feComposite in2="hardAlpha" operator="out"/>
<feColorMatrix type="matrix" values="0 0 0 0 0 0 0 0 0 0 0 0 0 0 0 0 0 0 0.25 0"/>
<feBlend mode="normal" in2="BackgroundImageFix" result="effect1_dropShadow_1029_20"/>
<feBlend mode="normal" in="SourceGraphic" in2="effect1_dropShadow_1029_20" result="shape"/>
</filter>
<linearGradient id="paint0_linear_1029_20" x1="58.5" y1="0" x2="58.5" y2="21" gradientUnits="userSpaceOnUse">
<stop stop-color="#5F5F5F"/>
<stop offset="1" stop-color="#4D4D4D"/>
</linearGradient>
<linearGradient id="paint1_linear_1029_20" x1="131" y1="0" x2="131" y2="21" gradientUnits="userSpaceOnUse">
<stop stop-color="#E0BB3B"/>
<stop offset="1" stop-color="#D4AF37"/>
</linearGradient>
</defs>
</svg>
